# Blender 4.2.20 LTS
# www.blender.org
mtllib laba3.mtl
o Base
v 2.657783 1.836906 -4.281039
v 2.657783 0.060946 -4.281039
v 2.657783 1.836906 5.106605
v 2.657783 0.060946 5.106605
v -2.657783 1.836906 -4.281039
v -2.657783 0.060946 -4.281039
v -2.657783 1.836906 5.106605
v -2.657783 0.060946 5.106605
v -1.123479 1.577254 -1.486659
v -1.123479 11.302064 -1.486659
v -1.123479 1.577254 -4.237447
v -1.123479 11.302064 -4.237447
v 1.102645 1.577254 -1.486659
v 1.102645 11.302064 -1.486659
v 1.102645 1.577254 -4.237447
v 1.102645 11.302064 -4.237447
vn -0.0000 1.0000 -0.0000
vn -0.0000 -0.0000 1.0000
vn -1.0000 -0.0000 -0.0000
vn -0.0000 -1.0000 -0.0000
vn 1.0000 -0.0000 -0.0000
vn -0.0000 -0.0000 -1.0000
vt 0.625000 0.500000
vt 0.875000 0.500000
vt 0.875000 0.750000
vt 0.625000 0.750000
vt 0.375000 0.750000
vt 0.625000 1.000000
vt 0.375000 1.000000
vt 0.375000 0.000000
vt 0.625000 0.000000
vt 0.625000 0.250000
vt 0.375000 0.250000
vt 0.125000 0.500000
vt 0.375000 0.500000
vt 0.125000 0.750000
vt 0.000000 0.000000
s 0
usemtl Material
f 1/1/1 5/2/1 7/3/1 3/4/1
f 4/5/2 3/4/2 7/6/2 8/7/2
f 8/8/3 7/9/3 5/10/3 6/11/3
f 6/12/4 2/13/4 4/5/4 8/14/4
f 2/13/5 1/1/5 3/4/5 4/5/5
f 6/11/6 5/10/6 1/1/6 2/13/6
f 9/15/3 10/15/3 12/15/3 11/15/3
f 11/15/6 12/15/6 16/15/6 15/15/6
f 15/15/5 16/15/5 14/15/5 13/15/5
f 13/15/2 14/15/2 10/15/2 9/15/2
f 11/15/4 15/15/4 13/15/4 9/15/4
f 16/15/1 12/15/1 10/15/1 14/15/1
o XO2
v -2.617791 1.825130 3.123789
v -2.617791 3.739596 3.123789
v -2.617791 1.825130 0.298200
v -2.617791 3.739596 0.298200
v 2.635565 1.825130 3.123789
v 2.635565 3.739596 3.123789
v 2.635565 1.825130 0.298200
v 2.635565 3.739596 0.298200
v -6.453097 2.962145 3.122271
v -6.453097 3.432307 3.122271
v -6.453097 2.962145 0.310500
v -6.453097 3.432307 0.310500
v -2.613277 1.854474 3.121529
v -2.613277 3.734201 3.121529
v -2.613277 1.854474 0.311242
v -2.613277 3.734201 0.311242
v 6.382394 2.972878 0.288641
v 6.382394 3.461401 0.288641
v 6.388836 2.972878 3.112634
v 6.388836 3.461401 3.112634
v 2.619189 1.851535 0.297972
v 2.619189 3.739535 0.297972
v 2.625628 1.851535 3.120472
v 2.625628 3.739535 3.120472
v -1.787763 1.841451 5.463926
v -1.787763 2.310606 5.463926
v -1.787762 1.841414 3.113966
v -1.787762 2.478409 3.113966
v 1.887012 1.841451 5.463926
v 1.887012 2.310606 5.463926
v 1.887012 1.841414 3.113966
v 1.887012 2.478409 3.113966
vn -1.0000 -0.0000 -0.0000
vn -0.0000 -0.0000 -1.0000
vn 1.0000 -0.0000 -0.0000
vn -0.0000 -0.0000 1.0000
vn -0.0000 -1.0000 -0.0000
vn -0.0000 1.0000 -0.0000
vn 0.0002 -0.0000 -1.0000
vn 0.0002 -0.0000 1.0000
vn -0.2772 -0.9608 -0.0000
vn -0.0784 0.9969 -0.0000
vn 1.0000 -0.0000 -0.0023
vn 0.0021 -0.0000 1.0000
vn -1.0000 -0.0000 0.0023
vn -0.0025 -0.0000 -1.0000
vn 0.2856 -0.9584 -0.0007
vn 0.0737 0.9973 -0.0002
vn -0.0000 0.9975 0.0712
vt 0.375000 0.000000
vt 0.625000 0.000000
vt 0.625000 0.250000
vt 0.375000 0.250000
vt 0.625000 0.500000
vt 0.375000 0.500000
vt 0.625000 0.750000
vt 0.375000 0.750000
vt 0.625000 1.000000
vt 0.375000 1.000000
vt 0.125000 0.500000
vt 0.125000 0.750000
vt 0.875000 0.500000
vt 0.875000 0.750000
s 0
f 17/16/7 18/17/7 20/18/7 19/19/7
f 19/19/8 20/18/8 24/20/8 23/21/8
f 23/21/9 24/20/9 22/22/9 21/23/9
f 21/23/10 22/22/10 18/24/10 17/25/10
f 19/26/11 23/21/11 21/23/11 17/27/11
f 24/20/12 20/28/12 18/29/12 22/22/12
f 25/16/7 26/17/7 28/18/7 27/19/7
f 27/19/13 28/18/13 32/20/13 31/21/13
f 31/21/9 32/20/9 30/22/9 29/23/9
f 29/23/14 30/22/14 26/24/14 25/25/14
f 27/26/15 31/21/15 29/23/15 25/27/15
f 32/20/16 28/28/16 26/29/16 30/22/16
f 33/16/17 34/17/17 36/18/17 35/19/17
f 35/19/18 36/18/18 40/20/18 39/21/18
f 39/21/19 40/20/19 38/22/19 37/23/19
f 37/23/20 38/22/20 34/24/20 33/25/20
f 35/26/21 39/21/21 37/23/21 33/27/21
f 40/20/22 36/28/22 34/29/22 38/22/22
f 41/16/7 42/17/7 44/18/7 43/19/7
f 43/19/8 44/18/8 48/20/8 47/21/8
f 47/21/9 48/20/9 46/22/9 45/23/9
f 45/23/10 46/22/10 42/24/10 41/25/10
f 43/26/11 47/21/11 45/23/11 41/27/11
f 48/20/23 44/28/23 42/29/23 46/22/23
o XO3
v -1.113033 7.388198 -0.914122
v -1.113033 10.378085 -0.914122
v -1.113033 7.388198 -1.495135
v -1.113033 10.378085 -1.495135
v 1.095865 7.388198 -0.914122
v 1.095865 10.378085 -0.914122
v 1.095865 7.388198 -1.495135
v 1.095865 10.378085 -1.495135
v -0.445264 8.103795 -0.001238
v -0.445264 9.912026 -0.001238
v -1.113158 7.386467 -0.916212
v -1.113158 9.905993 -0.916212
v 0.427845 8.103795 -0.001238
v 0.427845 9.912026 -0.001238
v 1.095740 7.386467 -0.916212
v 1.095740 9.905993 -0.916212
vn -1.0000 -0.0000 -0.0000
vn -0.0000 -0.0000 -1.0000
vn 1.0000 -0.0000 -0.0000
vn -0.0000 -0.0000 1.0000
vn -0.0000 -1.0000 -0.0000
vn -0.0000 1.0000 -0.0000
vn -0.8077 -0.0000 0.5896
vn 0.8077 -0.0000 0.5896
vn -0.0000 -0.7870 0.6170
vn -0.0000 1.0000 -0.0066
vt 0.375000 0.000000
vt 0.625000 0.000000
vt 0.625000 0.250000
vt 0.375000 0.250000
vt 0.625000 0.500000
vt 0.375000 0.500000
vt 0.625000 0.750000
vt 0.375000 0.750000
vt 0.625000 1.000000
vt 0.375000 1.000000
vt 0.125000 0.500000
vt 0.125000 0.750000
vt 0.875000 0.500000
vt 0.875000 0.750000
s 0
f 49/30/24 50/31/24 52/32/24 51/33/24
f 51/33/25 52/32/25 56/34/25 55/35/25
f 55/35/26 56/34/26 54/36/26 53/37/26
f 53/37/27 54/36/27 50/38/27 49/39/27
f 51/40/28 55/35/28 53/37/28 49/41/28
f 56/34/29 52/42/29 50/43/29 54/36/29
f 57/30/30 58/31/30 60/32/30 59/33/30
f 59/33/25 60/32/25 64/34/25 63/35/25
f 63/35/31 64/34/31 62/36/31 61/37/31
f 61/37/27 62/36/27 58/38/27 57/39/27
f 59/40/32 63/35/32 61/37/32 57/41/32
f 64/34/33 60/42/33 58/43/33 62/36/33
o XO1
v -0.428352 8.103607 1.888333
v -0.428352 9.908607 1.888333
v -0.428352 8.103607 -0.005619
v -0.428352 9.908607 -0.005619
v 0.416484 8.103607 1.888333
v 0.416484 9.908607 1.888333
v 0.416484 8.103607 -0.005619
v 0.416484 9.908607 -0.005619
v -0.006447 8.101449 1.273541
v -0.006447 10.390527 1.273541
v 0.069581 8.101449 1.281029
v 0.069581 10.390527 1.281029
v 0.142688 8.101449 1.303206
v 0.142688 10.390527 1.303206
v 0.210064 8.101449 1.339219
v 0.210064 10.390527 1.339219
v 0.269119 8.101449 1.387684
v 0.269119 10.390527 1.387684
v 0.317584 8.101449 1.446739
v 0.317584 10.390527 1.446739
v 0.353597 8.101449 1.514115
v 0.353597 10.390527 1.514115
v 0.375774 8.101449 1.587222
v 0.375774 10.390527 1.587222
v 0.383262 8.101449 1.663250
v 0.383262 10.390527 1.663250
v 0.375774 8.101449 1.739278
v 0.375774 10.390527 1.739278
v 0.353597 8.101449 1.812385
v 0.353597 10.390527 1.812385
v 0.317584 8.101449 1.879761
v 0.317584 10.390527 1.879761
v 0.269119 8.101449 1.938816
v 0.269119 10.390527 1.938816
v 0.210064 8.101449 1.987281
v 0.210064 10.390527 1.987281
v 0.142688 8.101449 2.023294
v 0.142688 10.390527 2.023294
v 0.069581 8.101449 2.045471
v 0.069581 10.390527 2.045471
v -0.006447 8.101449 2.052959
v -0.006447 10.390527 2.052959
v -0.082475 8.101449 2.045471
v -0.082475 10.390527 2.045471
v -0.155582 8.101449 2.023294
v -0.155582 10.390527 2.023294
v -0.222958 8.101449 1.987281
v -0.222958 10.390527 1.987281
v -0.282013 8.101449 1.938816
v -0.282013 10.390527 1.938816
v -0.330478 8.101449 1.879761
v -0.330478 10.390527 1.879761
v -0.366491 8.101449 1.812385
v -0.366491 10.390527 1.812385
v -0.388668 8.101449 1.739278
v -0.388668 10.390527 1.739278
v -0.396156 8.101449 1.663250
v -0.396156 10.390527 1.663250
v -0.388668 8.101449 1.587222
v -0.388668 10.390527 1.587222
v -0.366491 8.101449 1.514115
v -0.366491 10.390527 1.514115
v -0.330478 8.101449 1.446739
v -0.330478 10.390527 1.446739
v -0.282013 8.101449 1.387684
v -0.282013 10.390527 1.387684
v -0.222958 8.101449 1.339219
v -0.222958 10.390527 1.339219
v -0.155582 8.101449 1.303206
v -0.155582 10.390527 1.303206
v -0.082475 8.101449 1.281029
v -0.082475 10.390527 1.281029
v 0.001796 7.679826 1.387350
v 0.001796 8.421554 1.387350
v 0.056661 7.679826 1.392753
v 0.056661 8.421554 1.392753
v 0.109417 7.679826 1.408757
v 0.109417 8.421554 1.408757
v 0.158038 7.679826 1.434745
v 0.158038 8.421554 1.434745
v 0.200654 7.679826 1.469719
v 0.200654 8.421554 1.469719
v 0.235628 7.679826 1.512335
v 0.235628 8.421554 1.512335
v 0.261616 7.679826 1.560956
v 0.261616 8.421554 1.560956
v 0.277619 7.679826 1.613712
v 0.277619 8.421554 1.613712
v 0.283023 7.679826 1.668577
v 0.283023 8.421554 1.668577
v 0.277619 7.679826 1.723441
v 0.277619 8.421554 1.723441
v 0.261616 7.679826 1.776198
v 0.261616 8.421554 1.776198
v 0.235628 7.679826 1.824818
v 0.235628 8.421554 1.824818
v 0.200654 7.679826 1.867434
v 0.200654 8.421554 1.867434
v 0.158038 7.679826 1.902408
v 0.158038 8.421554 1.902408
v 0.109417 7.679826 1.928396
v 0.109417 8.421554 1.928396
v 0.056661 7.679826 1.944400
v 0.056661 8.421554 1.944400
v 0.001796 7.679826 1.949804
v 0.001796 8.421554 1.949804
v -0.053068 7.679826 1.944400
v -0.053068 8.421554 1.944400
v -0.105825 7.679826 1.928396
v -0.105825 8.421554 1.928396
v -0.154445 7.679826 1.902408
v -0.154445 8.421554 1.902408
v -0.197061 7.679826 1.867434
v -0.197061 8.421554 1.867434
v -0.232035 7.679826 1.824818
v -0.232035 8.421554 1.824818
v -0.258024 7.679826 1.776198
v -0.258024 8.421554 1.776198
v -0.274027 7.679826 1.723441
v -0.274027 8.421554 1.723441
v -0.279431 7.679826 1.668577
v -0.279431 8.421554 1.668577
v -0.274027 7.679826 1.613712
v -0.274027 8.421554 1.613712
v -0.258024 7.679826 1.560956
v -0.258024 8.421554 1.560956
v -0.232035 7.679826 1.512335
v -0.232035 8.421554 1.512335
v -0.197061 7.679826 1.469719
v -0.197061 8.421554 1.469719
v -0.154445 7.679826 1.434745
v -0.154445 8.421554 1.434745
v -0.105825 7.679826 1.408757
v -0.105825 8.421554 1.408757
v -0.053068 7.679826 1.392753
v -0.053068 8.421554 1.392753
v -0.422391 9.738147 0.890225
v -0.422391 11.676935 0.890225
v -0.422391 9.738147 -0.082873
v -0.422391 11.676935 -0.082873
v 0.411845 9.738147 0.890225
v 0.411845 11.676935 0.890225
v 0.411845 9.738147 -0.082873
v 0.411845 11.676935 -0.082873
vn -1.0000 -0.0000 -0.0000
vn -0.0000 -0.0000 -1.0000
vn 1.0000 -0.0000 -0.0000
vn -0.0000 -0.0000 1.0000
vn -0.0000 -1.0000 -0.0000
vn -0.0000 1.0000 -0.0000
vn 0.0980 -0.0000 -0.9952
vn 0.2903 -0.0000 -0.9569
vn 0.4714 -0.0000 -0.8819
vn 0.6344 -0.0000 -0.7730
vn 0.7730 -0.0000 -0.6344
vn 0.8819 -0.0000 -0.4714
vn 0.9569 -0.0000 -0.2903
vn 0.9952 -0.0000 -0.0980
vn 0.9952 -0.0000 0.0980
vn 0.9569 -0.0000 0.2903
vn 0.8819 -0.0000 0.4714
vn 0.7730 -0.0000 0.6344
vn 0.6344 -0.0000 0.7730
vn 0.4714 -0.0000 0.8819
vn 0.2903 -0.0000 0.9569
vn 0.0980 -0.0000 0.9952
vn -0.0980 -0.0000 0.9952
vn -0.2903 -0.0000 0.9569
vn -0.4714 -0.0000 0.8819
vn -0.6344 -0.0000 0.7730
vn -0.7730 -0.0000 0.6344
vn -0.8819 -0.0000 0.4714
vn -0.9569 -0.0000 0.2903
vn -0.9952 -0.0000 0.0980
vn -0.9952 -0.0000 -0.0980
vn -0.9569 -0.0000 -0.2903
vn -0.8819 -0.0000 -0.4714
vn -0.7730 -0.0000 -0.6344
vn -0.6344 -0.0000 -0.7730
vn -0.4714 -0.0000 -0.8819
vn -0.2903 -0.0000 -0.9569
vn -0.0980 -0.0000 -0.9952
vt 0.375000 0.000000
vt 0.625000 0.000000
vt 0.625000 0.250000
vt 0.375000 0.250000
vt 0.625000 0.500000
vt 0.375000 0.500000
vt 0.625000 0.750000
vt 0.375000 0.750000
vt 0.625000 1.000000
vt 0.375000 1.000000
vt 0.125000 0.500000
vt 0.125000 0.750000
vt 0.875000 0.500000
vt 0.875000 0.750000
vt 1.000000 0.500000
vt 1.000000 1.000000
vt 0.968750 1.000000
vt 0.968750 0.500000
vt 0.937500 1.000000
vt 0.937500 0.500000
vt 0.906250 1.000000
vt 0.906250 0.500000
vt 0.875000 1.000000
vt 0.843750 1.000000
vt 0.843750 0.500000
vt 0.812500 1.000000
vt 0.812500 0.500000
vt 0.781250 1.000000
vt 0.781250 0.500000
vt 0.750000 1.000000
vt 0.750000 0.500000
vt 0.718750 1.000000
vt 0.718750 0.500000
vt 0.687500 1.000000
vt 0.687500 0.500000
vt 0.656250 1.000000
vt 0.656250 0.500000
vt 0.593750 1.000000
vt 0.593750 0.500000
vt 0.562500 1.000000
vt 0.562500 0.500000
vt 0.531250 1.000000
vt 0.531250 0.500000
vt 0.500000 1.000000
vt 0.500000 0.500000
vt 0.468750 1.000000
vt 0.468750 0.500000
vt 0.437500 1.000000
vt 0.437500 0.500000
vt 0.406250 1.000000
vt 0.406250 0.500000
vt 0.343750 1.000000
vt 0.343750 0.500000
vt 0.312500 1.000000
vt 0.312500 0.500000
vt 0.281250 1.000000
vt 0.281250 0.500000
vt 0.250000 1.000000
vt 0.250000 0.500000
vt 0.218750 1.000000
vt 0.218750 0.500000
vt 0.187500 1.000000
vt 0.187500 0.500000
vt 0.156250 1.000000
vt 0.156250 0.500000
vt 0.125000 1.000000
vt 0.093750 1.000000
vt 0.093750 0.500000
vt 0.062500 1.000000
vt 0.062500 0.500000
vt 0.296822 0.485388
vt 0.250000 0.490000
vt 0.203178 0.485388
vt 0.158156 0.471731
vt 0.116663 0.449553
vt 0.080294 0.419706
vt 0.050447 0.383337
vt 0.028269 0.341844
vt 0.014612 0.296822
vt 0.010000 0.250000
vt 0.014612 0.203178
vt 0.028269 0.158156
vt 0.050447 0.116663
vt 0.080294 0.080294
vt 0.116663 0.050447
vt 0.158156 0.028269
vt 0.203178 0.014612
vt 0.250000 0.010000
vt 0.296822 0.014612
vt 0.341844 0.028269
vt 0.383337 0.050447
vt 0.419706 0.080294
vt 0.449553 0.116663
vt 0.471731 0.158156
vt 0.485388 0.203178
vt 0.490000 0.250000
vt 0.485388 0.296822
vt 0.471731 0.341844
vt 0.449553 0.383337
vt 0.419706 0.419706
vt 0.383337 0.449553
vt 0.341844 0.471731
vt 0.031250 1.000000
vt 0.031250 0.500000
vt 0.000000 1.000000
vt 0.000000 0.500000
vt 0.750000 0.490000
vt 0.796822 0.485388
vt 0.841844 0.471731
vt 0.883337 0.449553
vt 0.919706 0.419706
vt 0.949553 0.383337
vt 0.971731 0.341844
vt 0.985388 0.296822
vt 0.990000 0.250000
vt 0.985388 0.203178
vt 0.971731 0.158156
vt 0.949553 0.116663
vt 0.919706 0.080294
vt 0.883337 0.050447
vt 0.841844 0.028269
vt 0.796822 0.014612
vt 0.750000 0.010000
vt 0.703178 0.014612
vt 0.658156 0.028269
vt 0.616663 0.050447
vt 0.580294 0.080294
vt 0.550447 0.116663
vt 0.528269 0.158156
vt 0.514612 0.203178
vt 0.510000 0.250000
vt 0.514612 0.296822
vt 0.528269 0.341844
vt 0.550447 0.383337
vt 0.580294 0.419706
vt 0.616663 0.449553
vt 0.658156 0.471731
vt 0.703178 0.485388
s 0
f 65/44/34 66/45/34 68/46/34 67/47/34
f 67/47/35 68/46/35 72/48/35 71/49/35
f 71/49/36 72/48/36 70/50/36 69/51/36
f 69/51/37 70/50/37 66/52/37 65/53/37
f 67/54/38 71/49/38 69/51/38 65/55/38
f 72/48/39 68/56/39 66/57/39 70/50/39
f 73/58/40 74/59/40 76/60/40 75/61/40
f 75/61/41 76/60/41 78/62/41 77/63/41
f 77/63/42 78/62/42 80/64/42 79/65/42
f 79/65/43 80/64/43 82/66/43 81/56/43
f 81/56/44 82/66/44 84/67/44 83/68/44
f 83/68/45 84/67/45 86/69/45 85/70/45
f 85/70/46 86/69/46 88/71/46 87/72/46
f 87/72/47 88/71/47 90/73/47 89/74/47
f 89/74/48 90/73/48 92/75/48 91/76/48
f 91/76/49 92/75/49 94/77/49 93/78/49
f 93/78/50 94/77/50 96/79/50 95/80/50
f 95/80/51 96/79/51 98/52/51 97/48/51
f 97/48/52 98/52/52 100/81/52 99/82/52
f 99/82/53 100/81/53 102/83/53 101/84/53
f 101/84/54 102/83/54 104/85/54 103/86/54
f 103/86/55 104/85/55 106/87/55 105/88/55
f 105/88/56 106/87/56 108/89/56 107/90/56
f 107/90/57 108/89/57 110/91/57 109/92/57
f 109/92/58 110/91/58 112/93/58 111/94/58
f 111/94/59 112/93/59 114/53/59 113/49/59
f 113/49/60 114/53/60 116/95/60 115/96/60
f 115/96/61 116/95/61 118/97/61 117/98/61
f 117/98/62 118/97/62 120/99/62 119/100/62
f 119/100/63 120/99/63 122/101/63 121/102/63
f 121/102/64 122/101/64 124/103/64 123/104/64
f 123/104/65 124/103/65 126/105/65 125/106/65
f 125/106/66 126/105/66 128/107/66 127/108/66
f 127/108/67 128/107/67 130/109/67 129/54/67
f 129/54/68 130/109/68 132/110/68 131/111/68
f 131/111/69 132/110/69 134/112/69 133/113/69
f 76/114/39 74/115/39 136/116/39 134/117/39 132/118/39 130/119/39 128/120/39 126/121/39 124/122/39 122/123/39 120/124/39 118/125/39 116/126/39 114/127/39 112/128/39 110/129/39 108/130/39 106/131/39 104/132/39 102/133/39 100/134/39 98/135/39 96/136/39 94/137/39 92/138/39 90/139/39 88/140/39 86/141/39 84/142/39 82/143/39 80/144/39 78/145/39
f 133/113/70 134/112/70 136/146/70 135/147/70
f 135/147/71 136/146/71 74/148/71 73/149/71
f 73/150/38 75/151/38 77/152/38 79/153/38 81/154/38 83/155/38 85/156/38 87/157/38 89/158/38 91/159/38 93/160/38 95/161/38 97/162/38 99/163/38 101/164/38 103/165/38 105/166/38 107/167/38 109/168/38 111/169/38 113/170/38 115/171/38 117/172/38 119/173/38 121/174/38 123/175/38 125/176/38 127/177/38 129/178/38 131/179/38 133/180/38 135/181/38
f 137/58/40 138/59/40 140/60/40 139/61/40
f 139/61/41 140/60/41 142/62/41 141/63/41
f 141/63/42 142/62/42 144/64/42 143/65/42
f 143/65/43 144/64/43 146/66/43 145/56/43
f 145/56/44 146/66/44 148/67/44 147/68/44
f 147/68/45 148/67/45 150/69/45 149/70/45
f 149/70/46 150/69/46 152/71/46 151/72/46
f 151/72/47 152/71/47 154/73/47 153/74/47
f 153/74/48 154/73/48 156/75/48 155/76/48
f 155/76/49 156/75/49 158/77/49 157/78/49
f 157/78/50 158/77/50 160/79/50 159/80/50
f 159/80/51 160/79/51 162/52/51 161/48/51
f 161/48/52 162/52/52 164/81/52 163/82/52
f 163/82/53 164/81/53 166/83/53 165/84/53
f 165/84/54 166/83/54 168/85/54 167/86/54
f 167/86/55 168/85/55 170/87/55 169/88/55
f 169/88/56 170/87/56 172/89/56 171/90/56
f 171/90/57 172/89/57 174/91/57 173/92/57
f 173/92/58 174/91/58 176/93/58 175/94/58
f 175/94/59 176/93/59 178/53/59 177/49/59
f 177/49/60 178/53/60 180/95/60 179/96/60
f 179/96/61 180/95/61 182/97/61 181/98/61
f 181/98/62 182/97/62 184/99/62 183/100/62
f 183/100/63 184/99/63 186/101/63 185/102/63
f 185/102/64 186/101/64 188/103/64 187/104/64
f 187/104/65 188/103/65 190/105/65 189/106/65
f 189/106/66 190/105/66 192/107/66 191/108/66
f 191/108/67 192/107/67 194/109/67 193/54/67
f 193/54/68 194/109/68 196/110/68 195/111/68
f 195/111/69 196/110/69 198/112/69 197/113/69
f 140/114/39 138/115/39 200/116/39 198/117/39 196/118/39 194/119/39 192/120/39 190/121/39 188/122/39 186/123/39 184/124/39 182/125/39 180/126/39 178/127/39 176/128/39 174/129/39 172/130/39 170/131/39 168/132/39 166/133/39 164/134/39 162/135/39 160/136/39 158/137/39 156/138/39 154/139/39 152/140/39 150/141/39 148/142/39 146/143/39 144/144/39 142/145/39
f 197/113/70 198/112/70 200/146/70 199/147/70
f 199/147/71 200/146/71 138/148/71 137/149/71
f 137/150/38 139/151/38 141/152/38 143/153/38 145/154/38 147/155/38 149/156/38 151/157/38 153/158/38 155/159/38 157/160/38 159/161/38 161/162/38 163/163/38 165/164/38 167/165/38 169/166/38 171/167/38 173/168/38 175/169/38 177/170/38 179/171/38 181/172/38 183/173/38 185/174/38 187/175/38 189/176/38 191/177/38 193/178/38 195/179/38 197/180/38 199/181/38
f 201/44/34 202/45/34 204/46/34 203/47/34
f 203/47/35 204/46/35 208/48/35 207/49/35
f 207/49/36 208/48/36 206/50/36 205/51/36
f 205/51/37 206/50/37 202/52/37 201/53/37
f 203/54/38 207/49/38 205/51/38 201/55/38
f 208/48/39 204/56/39 202/57/39 206/50/39
